<svg version="1.1" id="Layer_1" xmlns="http://www.w3.org/2000/svg" xmlns:xlink="http://www.w3.org/1999/xlink" x="0px" y="0px"
	 width="100%" viewBox="0 0 1248 832" enable-background="new 0 0 1248 832" xml:space="preserve">
<path fill="#0D0D0D" opacity="1.000000" stroke="none" 
	d="
M814.000000,833.000000 
	C542.699158,833.000000 271.898315,833.000000 1.048744,833.000000 
	C1.048744,555.732422 1.048744,278.464874 1.048744,1.098657 
	C416.884308,1.098657 832.768616,1.098657 1248.826416,1.098657 
	C1248.826416,278.333252 1248.826416,555.666626 1248.826416,833.000000 
	C1104.131226,833.000000 959.315613,833.000000 814.000000,833.000000 
M658.869263,428.176270 
	C660.218689,428.578674 661.568115,428.981110 663.088806,429.434570 
	C663.088806,431.274536 663.074036,432.918365 663.092957,434.561768 
	C663.112061,436.219788 663.039551,437.891602 663.226562,439.532379 
	C663.726440,443.917145 667.426025,446.665802 671.650085,445.711487 
	C672.581421,445.501099 673.346497,444.554565 674.188110,443.947021 
	C673.357361,443.226013 672.518799,441.884827 671.697266,441.895172 
	C668.701294,441.932953 667.990540,440.386566 668.051392,437.830780 
	C668.120605,434.921661 668.067383,432.009705 668.067383,430.401642 
	C670.533997,428.784332 671.959045,427.850006 673.384033,426.915680 
	C671.821960,425.928314 670.259888,424.940948 668.788574,424.010986 
	C667.847046,422.796722 666.891968,421.392487 665.694397,420.240387 
	C665.545776,420.097443 663.388428,421.288696 663.384155,421.870605 
	C663.354492,425.954407 660.568848,425.432983 657.284058,424.984161 
	C656.010498,424.900269 654.736938,424.816345 653.463379,424.732452 
	C653.247131,424.245392 653.030823,423.758331 652.814575,423.271240 
	C654.241211,422.426758 655.714172,421.649780 657.078369,420.714203 
	C657.996948,420.084229 658.761963,419.230164 659.595642,418.476349 
	C658.758484,417.872253 657.926147,416.774963 657.083252,416.766785 
	C655.331543,416.749725 652.921082,416.703979 651.947937,417.752625 
	C649.520325,420.368622 647.704102,423.563812 645.763123,426.603607 
	C645.536316,426.958862 645.952393,428.265228 646.263000,428.340942 
	C650.123413,429.282227 648.713806,432.325226 648.800293,434.665741 
	C648.927551,438.111847 648.833130,441.566101 648.833130,445.503601 
	C650.609192,445.389557 651.957764,445.302979 653.522461,445.202515 
	C653.522461,439.608002 653.522461,434.509155 653.522461,429.269012 
	C655.158936,429.012054 656.579712,428.788971 658.869263,428.176270 
M341.210999,386.289856 
	C326.695312,372.153290 312.179596,358.016724 296.932281,343.167633 
	C331.788513,328.882233 338.887268,299.799164 342.442841,268.199890 
	C335.765900,268.199890 329.396820,268.199890 323.041107,268.199890 
	C320.528961,322.879547 293.597229,335.177399 255.583130,331.955597 
	C255.583130,311.450623 255.583130,290.892456 255.583130,270.342041 
	C249.320847,270.342041 243.595367,270.342041 237.779144,270.342041 
	C237.779144,314.731140 237.779144,358.804688 237.779144,402.864258 
	C243.715988,402.864258 249.431427,402.864258 255.524155,402.864258 
	C255.524155,384.228180 255.524155,365.978088 255.524155,346.874451 
	C263.173035,346.874451 270.449768,346.789398 277.720001,346.968262 
	C278.782013,346.994415 279.980896,348.117523 280.833649,349.004822 
	C297.333771,366.173615 313.786041,383.388397 330.273834,400.569061 
	C331.168945,401.501801 332.271484,402.902802 333.306061,402.928345 
	C341.290222,403.125519 349.281464,403.036987 357.244568,403.036987 
	C351.824738,397.371033 346.765930,392.082489 341.210999,386.289856 
M385.604492,306.181000 
	C384.301086,306.453888 382.985382,306.678436 381.696045,307.006714 
	C348.193359,315.536560 335.132019,354.269562 357.091583,379.951843 
	C376.161774,402.254883 416.422882,403.265259 436.198730,381.593231 
	C440.266937,377.134918 442.875244,371.344452 446.739502,365.248169 
	C441.053680,365.248169 437.219727,365.061523 433.421326,365.347107 
	C432.048615,365.450317 430.062286,366.353485 429.539520,367.453857 
	C421.868225,383.600739 396.349335,388.778290 380.233856,380.535492 
	C369.719879,375.157806 363.699829,366.705200 362.391479,354.274536 
	C390.984314,354.274536 419.044800,354.274536 447.330505,354.274536 
	C447.818146,338.603271 443.190948,325.685730 430.900665,316.120148 
	C417.680420,305.830750 402.583801,303.633789 385.604492,306.181000 
M971.487244,396.989380 
	C987.468079,392.362549 998.204407,382.342010 1003.623901,365.805969 
	C1001.970398,365.805969 1000.838745,365.797913 999.707214,365.807465 
	C996.708984,365.832764 993.695374,365.702515 990.720947,365.983826 
	C989.675781,366.082703 988.255615,366.966461 987.803528,367.884277 
	C978.934021,385.894379 957.547363,388.927826 942.961365,384.049591 
	C929.271057,379.470917 920.082153,367.675568 920.949768,354.940826 
	C948.936340,354.940826 976.969910,354.940826 1005.038147,354.940826 
	C1006.048889,335.194336 997.995483,320.789093 981.148621,312.260223 
	C964.480286,303.821747 946.943481,303.824219 930.042419,311.942932 
	C912.571106,320.335541 903.189087,337.838287 904.880127,357.005188 
	C906.516296,375.550140 918.834351,390.514130 937.112183,396.226959 
	C948.224060,399.699982 959.414185,399.606537 971.487244,396.989380 
M500.498901,359.935059 
	C490.850677,359.788727 481.531525,361.497559 472.923615,365.860352 
	C457.193115,373.833069 448.616852,386.804962 446.506775,404.534729 
	C452.078552,404.534729 457.153534,404.534729 462.187866,404.534729 
	C465.723297,380.112701 486.543274,371.042328 505.274261,373.002991 
	C523.412842,374.901642 536.912720,389.209473 537.939270,408.173615 
	C538.932800,426.526520 525.979736,442.339874 506.761139,445.754791 
	C497.127380,447.466614 487.800232,445.974701 479.287384,440.936493 
	C469.239166,434.989655 463.518280,426.018280 461.870361,414.567078 
	C456.735962,414.567078 451.951691,414.567078 446.533417,414.567078 
	C446.874756,416.739594 447.058044,418.669403 447.490326,420.541718 
	C453.021149,444.496063 473.059387,459.271332 500.018799,459.313721 
	C534.777893,459.368378 558.823914,430.934814 552.030396,397.811768 
	C547.468384,375.568390 527.140503,360.338654 500.498901,359.935059 
M783.466003,326.029724 
	C766.996643,306.179443 745.821960,302.943573 722.450562,309.629791 
	C690.447693,318.785339 679.467346,358.625916 701.912781,383.259125 
	C715.516296,398.188568 732.882690,401.660095 752.061279,398.925110 
	C786.590393,394.001007 803.692444,355.111816 783.466003,326.029724 
M622.582703,390.085449 
	C635.541016,375.603058 631.934326,358.522919 614.076233,350.882324 
	C609.685120,349.003632 604.852844,348.150116 600.214478,346.857025 
	C593.507507,344.987244 586.691467,343.440979 580.118225,341.184814 
	C576.052002,339.789124 572.835083,336.868164 573.067322,331.930450 
	C573.306885,326.837646 575.718628,322.525055 580.558044,321.136200 
	C585.710022,319.657654 591.303711,318.801758 596.635559,319.065948 
	C606.401367,319.549805 611.374573,324.330811 613.511658,333.647339 
	C618.078491,333.647339 622.654541,333.647339 627.364746,333.647339 
	C627.198792,325.941681 624.576965,319.694153 618.866577,314.922485 
	C607.479736,305.407349 594.254700,305.021332 580.565979,307.556915 
	C573.650452,308.837891 567.812317,312.255676 563.141968,317.569763 
	C554.088928,327.870483 556.138916,343.498291 568.039490,350.266327 
	C573.586670,353.421143 579.960632,355.238708 586.110657,357.186127 
	C593.067200,359.388916 600.267456,360.823853 607.217896,363.043274 
	C611.564514,364.431213 614.680054,367.485931 614.967529,372.458557 
	C615.256165,377.451263 612.832031,381.035187 608.769104,383.653748 
	C594.451843,392.881073 574.504272,386.242706 569.126831,370.383179 
	C564.560852,370.383179 559.966553,370.383179 555.391724,370.383179 
	C554.855469,378.412811 558.086975,385.493591 564.685730,391.033264 
	C578.750366,402.840698 608.094727,402.618958 622.582703,390.085449 
M889.313171,331.211029 
	C884.447266,319.462341 875.551941,312.242462 863.604065,308.595490 
	C835.814331,300.112946 807.416748,315.825928 804.580322,342.860779 
	C802.700806,360.775482 804.224182,379.047211 804.224182,397.293457 
	C809.050049,397.293457 813.938293,397.293457 819.094421,397.293457 
	C819.094421,383.640747 819.020569,370.326019 819.133545,357.012878 
	C819.174438,352.199127 819.142944,347.289307 820.044617,342.596222 
	C822.788696,328.313751 834.595337,319.360474 849.670410,319.622986 
	C864.029297,319.873016 875.048950,329.303802 876.963745,343.847778 
	C877.893005,350.905548 877.591553,358.138397 877.656982,365.293762 
	C877.754028,375.914734 877.682129,386.537262 877.682129,397.249451 
	C883.008362,397.249451 887.894165,397.249451 892.679199,397.249451 
	C892.867859,396.584412 893.037415,396.265320 893.037598,395.946136 
	C893.048096,380.619080 893.356750,365.282410 892.885925,349.969757 
	C892.700012,343.921112 890.774475,337.925995 889.313171,331.211029 
M645.543030,307.646484 
	C641.097351,307.646484 636.651672,307.646484 632.268616,307.646484 
	C632.268616,311.736969 632.268616,315.299316 632.268616,319.222107 
	C637.575439,319.222107 642.507690,319.222107 647.889893,319.222107 
	C647.889893,321.206604 647.891296,322.826050 647.889648,324.445465 
	C647.874451,339.097443 647.675232,353.752106 647.886658,368.400787 
	C648.194702,389.738892 664.434143,402.183380 685.095459,396.893280 
	C685.095459,393.052277 685.095459,389.140503 685.095459,385.068146 
	C683.684387,385.068146 682.532043,385.056641 681.380005,385.069916 
	C670.375366,385.196899 664.268799,380.613464 663.838562,369.779053 
	C663.173706,353.033203 663.663330,336.241486 663.663330,319.094574 
	C670.777954,319.094574 677.866455,319.094574 685.138977,319.094574 
	C685.138977,315.150970 685.138977,311.584381 685.138977,307.454773 
	C677.843750,307.454773 670.805725,307.454773 663.368835,307.454773 
	C663.368835,299.327393 663.368835,291.755066 663.368835,284.284760 
	C658.017029,284.284760 653.103760,284.284760 648.025879,284.284760 
	C648.025879,290.917267 648.111572,297.224060 647.958618,303.525085 
	C647.925232,304.899872 647.039124,306.253967 645.543030,307.646484 
M544.412842,310.414978 
	C541.474915,310.414978 538.536987,310.414978 535.692505,310.414978 
	C533.173462,331.278961 521.800354,342.284912 502.270325,343.294495 
	C493.495361,343.748108 485.322815,341.800995 478.282715,336.430389 
	C469.848175,329.996063 465.794159,321.167023 465.556213,310.653534 
	C460.074493,310.653534 455.012665,310.653534 449.536682,310.653534 
	C450.026245,327.822083 457.065491,341.212311 471.823120,349.112030 
	C492.225555,360.033447 513.057617,359.330109 532.424316,346.386475 
	C544.786987,338.123932 551.345581,325.949890 551.357056,310.410522 
	C548.961060,310.410522 547.146973,310.410522 544.412842,310.414978 
M696.985413,444.441528 
	C698.723083,444.208771 701.640686,444.496094 702.009277,443.659943 
	C704.640076,437.690887 706.751160,431.492737 709.496826,424.104584 
	C700.905579,426.665466 703.563599,435.015839 699.088623,438.955414 
	C697.854797,435.236481 696.821289,431.566193 695.377380,428.065125 
	C694.861084,426.813263 693.352905,425.165924 692.296326,425.165100 
	C691.215576,425.164276 689.674683,426.764099 689.141113,428.008728 
	C687.748840,431.256561 686.797241,434.693359 685.611450,438.229065 
	C680.608521,434.647644 684.065369,425.789124 675.090027,424.464478 
	C677.485596,431.213684 679.435364,436.991699 681.639771,442.670837 
	C682.067566,443.773010 683.574402,445.287872 684.431030,445.195648 
	C685.690308,445.060089 687.338318,443.900177 687.892212,442.735138 
	C689.419739,439.522217 690.465149,436.080109 692.121338,431.589600 
	C693.968384,436.457703 695.351379,440.102661 696.985413,444.441528 
M596.878418,441.633820 
	C599.672729,445.558502 606.851807,447.256683 612.450928,445.314850 
	C615.890503,444.121979 618.149963,441.960815 618.314026,438.107574 
	C618.484619,434.102448 616.114929,432.016754 612.667297,430.886841 
	C610.143616,430.059692 607.478210,429.617828 605.033813,428.618256 
	C604.016174,428.202209 602.647156,426.642273 602.793091,425.852997 
	C603.012146,424.668152 604.336121,422.913788 605.346497,422.801025 
	C607.895020,422.516663 610.537354,423.208496 613.128967,423.120758 
	C614.557434,423.072418 615.959351,422.240784 617.373230,421.762268 
	C612.389648,417.758606 607.767944,417.136536 602.930420,418.800568 
	C599.413391,420.010406 596.803162,422.740936 597.631775,426.229340 
	C598.239990,428.790161 600.830017,431.313385 603.179932,432.902344 
	C605.413452,434.412598 608.563904,434.497650 611.140686,435.605713 
	C612.092957,436.015259 613.158142,437.604462 613.078247,438.564636 
	C612.999146,439.514923 611.541138,441.102234 610.687378,441.102570 
	C607.450378,441.103821 604.218811,440.469421 600.973267,440.297028 
	C599.704407,440.229584 598.403992,440.754456 596.878418,441.633820 
M786.611328,420.047180 
	C781.338989,425.609070 782.582397,430.794220 789.802490,433.195160 
	C792.005859,433.927826 794.400391,434.230652 796.437927,435.262360 
	C797.670532,435.886505 799.263611,437.675079 799.100525,438.682404 
	C798.916077,439.821655 796.912781,441.533447 795.758850,441.488739 
	C792.056641,441.345306 788.381287,440.505890 784.109619,439.844269 
	C782.591492,441.356201 782.359558,443.515472 785.695862,444.158875 
	C789.822388,444.954620 794.137390,445.512573 798.293884,445.187744 
	C801.830688,444.911316 804.228455,442.274292 804.403137,438.391022 
	C804.577576,434.513641 802.432556,432.184082 798.946045,430.982697 
	C796.750610,430.226196 794.360596,429.911377 792.314819,428.885834 
	C790.908752,428.181000 789.943665,426.596436 788.781494,425.405029 
	C790.144836,424.382019 791.469666,422.570221 792.879578,422.501373 
	C795.756775,422.360809 798.679688,423.158661 801.674744,423.582886 
	C803.441162,420.276825 803.523926,419.577667 800.234192,419.188110 
	C795.982666,418.684662 791.582397,419.437592 786.611328,420.047180 
M928.379517,430.005341 
	C934.053284,427.888031 936.318359,429.179230 936.660278,434.887848 
	C936.839172,437.874664 936.738464,440.877563 936.813538,443.871948 
	C936.824707,444.317047 937.109314,444.755249 937.350769,445.429169 
	C938.653931,445.296173 939.907593,445.168243 941.215576,445.034760 
	C941.215576,440.290924 941.375610,435.827515 941.166992,431.381378 
	C940.986389,427.533691 938.539490,424.983826 934.881165,424.776031 
	C930.492310,424.526764 926.050354,425.212036 921.531982,425.498962 
	C921.531982,432.085052 921.531982,438.512329 921.531982,445.376831 
	C923.161865,445.277985 924.511658,445.196075 925.248901,445.151367 
	C926.150940,439.921448 926.952637,435.273590 928.379517,430.005341 
M728.988586,432.022156 
	C727.356323,425.185883 718.398621,421.754425 712.946411,426.047150 
	C712.196289,426.637756 712.459656,428.515594 712.187134,430.212311 
	C721.217285,427.557495 723.041260,428.106537 723.582703,433.460785 
	C721.260864,433.460785 718.952698,433.306091 716.673218,433.495789 
	C712.918030,433.808350 710.213013,435.705688 710.267883,439.711090 
	C710.323914,443.803802 713.450500,445.569183 716.966248,445.703949 
	C720.877625,445.853851 724.821777,445.147888 729.029419,444.790985 
	C729.029419,440.841156 729.029419,436.873627 728.988586,432.022156 
M756.795593,436.877625 
	C760.888794,436.877625 764.981995,436.877625 769.016541,436.877625 
	C769.476135,430.293304 766.951599,426.153320 762.054749,424.845337 
	C756.941956,423.479614 751.623169,425.835266 749.479065,430.415009 
	C747.398132,434.859955 748.664185,440.774323 752.287292,443.532776 
	C757.017456,447.134277 763.112427,446.754944 768.773376,441.402069 
	C766.251709,441.252289 764.757507,440.763519 763.566772,441.168060 
	C760.043274,442.365021 757.022034,441.973785 754.599792,439.081665 
	C754.415344,438.861359 755.424316,437.641571 756.795593,436.877625 
M847.121704,424.825500 
	C846.107117,425.333344 844.220520,425.830780 844.214355,426.350647 
	C844.158936,430.989288 843.839966,435.770081 844.871521,440.213531 
	C845.368835,442.355896 848.410522,445.067535 850.622314,445.404175 
	C854.884094,446.052795 859.374878,445.196442 863.751709,444.965179 
	C863.751709,438.205078 863.751709,431.641937 863.751709,424.684784 
	C861.989502,424.896545 860.604187,425.063019 859.138855,425.239075 
	C859.138855,428.667267 859.090759,431.658325 859.150940,434.647156 
	C859.227051,438.421814 858.169373,441.451202 853.796082,441.464630 
	C849.365540,441.478241 849.217041,438.147980 849.039124,434.784393 
	C848.864380,431.481842 848.283264,428.200806 847.121704,424.825500 
M626.480408,444.237061 
	C634.264709,447.673340 641.250427,445.137268 643.063599,438.216797 
	C644.401611,433.109833 642.040894,427.840332 637.410889,425.599030 
	C632.638733,423.288910 626.271362,424.696167 623.393677,428.696930 
	C619.983398,433.438080 620.885132,439.038391 626.480408,444.237061 
M827.848083,429.739380 
	C824.992065,425.255249 820.583740,423.305603 815.859436,424.967102 
	C812.814636,426.037964 809.750610,428.920105 808.154785,431.799469 
	C805.871338,435.919342 807.867859,440.998474 811.567627,443.735657 
	C815.567505,446.694824 821.171265,446.716736 825.042480,443.788269 
	C829.211365,440.634583 830.174866,436.495758 827.848083,429.739380 
M906.412964,445.965057 
	C913.360352,444.860168 917.092590,440.973877 916.952820,434.989960 
	C916.828613,429.667572 913.150269,425.542450 907.831177,424.760162 
	C901.481873,423.826355 896.065063,427.370728 895.061646,433.115723 
	C893.867676,439.951721 897.809692,444.764923 906.412964,445.965057 
M946.619751,444.185333 
	C950.945251,444.396759 955.310730,445.007385 959.572083,444.579865 
	C960.876099,444.449036 962.763794,441.486664 962.797852,439.789185 
	C962.831726,438.104645 961.197876,435.945709 959.686035,434.796417 
	C958.210510,433.674744 955.913208,433.696533 954.074585,432.968933 
	C952.784668,432.458466 951.659058,431.532837 950.726196,430.956879 
	C953.261108,424.699463 959.948303,433.110748 962.733215,425.608276 
	C958.717712,425.245087 955.351868,424.562805 952.033630,424.745270 
	C948.620239,424.932953 946.079224,426.853546 945.808533,430.681946 
	C945.520203,434.759369 948.315735,436.075226 951.563965,436.974762 
	C953.811768,437.597260 956.041565,438.285065 958.939331,439.137909 
	C955.419067,443.198914 952.212158,441.897125 949.179565,440.868103 
	C946.023865,439.797394 945.183960,440.842712 946.619751,444.185333 
M876.326660,429.083984 
	C878.300903,428.414764 882.472168,430.013031 880.376404,424.905945 
	C878.943665,424.905945 877.501953,424.905945 876.108521,424.905945 
	C875.212158,420.133606 875.212158,420.133606 872.879517,420.364838 
	C870.427246,422.833527 867.842834,424.262756 867.776550,425.800568 
	C867.694702,427.699371 869.800232,429.643768 870.760193,431.663757 
	C871.078613,432.333801 870.756958,433.298553 870.763367,434.128296 
	C870.777588,435.954224 870.697327,437.790802 870.864990,439.603668 
	C871.289856,444.198547 875.376709,446.964417 879.737183,445.522827 
	C880.593018,445.239899 881.170593,444.115540 881.876465,443.379211 
	C881.160767,442.848236 880.393799,441.804382 879.737671,441.869934 
	C875.618347,442.281555 875.560791,439.667603 875.656006,436.797943 
	C875.733032,434.475342 875.749268,432.150787 876.326660,429.083984 
M833.747192,435.414642 
	C833.747192,438.685638 833.747192,441.956635 833.747192,445.676025 
	C835.675476,445.473541 837.032898,445.330994 838.290771,445.198914 
	C838.290771,435.638458 838.290771,426.557281 838.290771,417.292847 
	C836.678772,417.292847 835.289978,417.292847 833.749634,417.292847 
	C833.749634,423.193787 833.749634,428.817474 833.747192,435.414642 
M734.812500,443.601257 
	C736.240601,444.329132 737.668701,445.056976 739.581543,446.031891 
	C739.581543,442.760742 739.572021,440.934814 739.583374,439.109009 
	C739.611267,434.609680 738.987244,429.814972 745.430725,428.791504 
	C746.032410,428.695923 746.283081,426.390411 746.568604,425.507385 
	C742.221252,425.507385 738.645752,425.507385 734.786255,425.507385 
	C734.786255,431.187408 734.786255,436.976837 734.812500,443.601257 
M885.743835,441.064728 
	C885.569031,444.216003 885.772705,446.940613 890.437317,444.962006 
	C890.437317,438.430237 890.437317,431.889557 890.437317,425.088348 
	C888.933289,425.088348 887.540588,425.088348 885.746216,425.088348 
	C885.746216,430.267426 885.746216,435.214600 885.743835,441.064728 
M886.283997,416.637177 
	C886.222290,418.062408 885.627136,419.852417 886.271484,420.794861 
	C886.766785,421.519287 888.912659,421.501556 890.143921,421.160980 
	C890.696899,421.008057 891.342346,418.613556 891.025391,418.352142 
	C889.861633,417.392212 888.311768,416.900391 886.283997,416.637177 
z"/>
<path fill="#F6F6F6" opacity="1.000000" stroke="none" 
	d="
M341.459045,386.541901 
	C346.765930,392.082489 351.824738,397.371033 357.244568,403.036987 
	C349.281464,403.036987 341.290222,403.125519 333.306061,402.928345 
	C332.271484,402.902802 331.168945,401.501801 330.273834,400.569061 
	C313.786041,383.388397 297.333771,366.173615 280.833649,349.004822 
	C279.980896,348.117523 278.782013,346.994415 277.720001,346.968262 
	C270.449768,346.789398 263.173035,346.874451 255.524155,346.874451 
	C255.524155,365.978088 255.524155,384.228180 255.524155,402.864258 
	C249.431427,402.864258 243.715988,402.864258 237.779144,402.864258 
	C237.779144,358.804688 237.779144,314.731140 237.779144,270.342041 
	C243.595367,270.342041 249.320847,270.342041 255.583130,270.342041 
	C255.583130,290.892456 255.583130,311.450623 255.583130,331.955597 
	C293.597229,335.177399 320.528961,322.879547 323.041107,268.199890 
	C329.396820,268.199890 335.765900,268.199890 342.442841,268.199890 
	C338.887268,299.799164 331.788513,328.882233 296.932281,343.167633 
	C312.179596,358.016724 326.695312,372.153290 341.459045,386.541901 
z"/>
<path fill="#F4F4F3" opacity="1.000000" stroke="none" 
	d="
M386.033447,306.118591 
	C402.583801,303.633789 417.680420,305.830750 430.900665,316.120148 
	C443.190948,325.685730 447.818146,338.603271 447.330505,354.274536 
	C419.044800,354.274536 390.984314,354.274536 362.391479,354.274536 
	C363.699829,366.705200 369.719879,375.157806 380.233856,380.535492 
	C396.349335,388.778290 421.868225,383.600739 429.539520,367.453857 
	C430.062286,366.353485 432.048615,365.450317 433.421326,365.347107 
	C437.219727,365.061523 441.053680,365.248169 446.739502,365.248169 
	C442.875244,371.344452 440.266937,377.134918 436.198730,381.593231 
	C416.422882,403.265259 376.161774,402.254883 357.091583,379.951843 
	C335.132019,354.269562 348.193359,315.536560 381.696045,307.006714 
	C382.985382,306.678436 384.301086,306.453888 386.033447,306.118591 
M423.164001,327.339661 
	C411.267853,316.592285 397.328857,315.481873 382.944794,320.062927 
	C372.339142,323.440582 365.615112,331.297852 363.021820,342.579102 
	C385.933411,342.579102 408.437805,342.579102 432.803528,342.579102 
	C429.307800,336.948517 426.485229,332.402252 423.164001,327.339661 
z"/>
<path fill="#F4F4F3" opacity="1.000000" stroke="none" 
	d="
M971.081421,397.052094 
	C959.414185,399.606537 948.224060,399.699982 937.112183,396.226959 
	C918.834351,390.514130 906.516296,375.550140 904.880127,357.005188 
	C903.189087,337.838287 912.571106,320.335541 930.042419,311.942932 
	C946.943481,303.824219 964.480286,303.821747 981.148621,312.260223 
	C997.995483,320.789093 1006.048889,335.194336 1005.038147,354.940826 
	C976.969910,354.940826 948.936340,354.940826 920.949768,354.940826 
	C920.082153,367.675568 929.271057,379.470917 942.961365,384.049591 
	C957.547363,388.927826 978.934021,385.894379 987.803528,367.884277 
	C988.255615,366.966461 989.675781,366.082703 990.720947,365.983826 
	C993.695374,365.702515 996.708984,365.832764 999.707214,365.807465 
	C1000.838745,365.797913 1001.970398,365.805969 1003.623901,365.805969 
	C998.204407,382.342010 987.468079,392.362549 971.081421,397.052094 
M933.522522,343.719360 
	C952.054077,343.719360 970.585571,343.719360 989.184387,343.719360 
	C987.377014,328.290680 972.287354,318.108704 953.088684,318.780243 
	C936.819824,319.349243 922.198975,330.862854 921.581604,343.727570 
	C925.236450,343.727570 928.885742,343.727570 933.522522,343.719360 
z"/>
<path fill="#F4F4F3" opacity="1.000000" stroke="none" 
	d="
M500.987488,359.935608 
	C527.140503,360.338654 547.468384,375.568390 552.030396,397.811768 
	C558.823914,430.934814 534.777893,459.368378 500.018799,459.313721 
	C473.059387,459.271332 453.021149,444.496063 447.490326,420.541718 
	C447.058044,418.669403 446.874756,416.739594 446.533417,414.567078 
	C451.951691,414.567078 456.735962,414.567078 461.870361,414.567078 
	C463.518280,426.018280 469.239166,434.989655 479.287384,440.936493 
	C487.800232,445.974701 497.127380,447.466614 506.761139,445.754791 
	C525.979736,442.339874 538.932800,426.526520 537.939270,408.173615 
	C536.912720,389.209473 523.412842,374.901642 505.274261,373.002991 
	C486.543274,371.042328 465.723297,380.112701 462.187866,404.534729 
	C457.153534,404.534729 452.078552,404.534729 446.506775,404.534729 
	C448.616852,386.804962 457.193115,373.833069 472.923615,365.860352 
	C481.531525,361.497559 490.850677,359.788727 500.987488,359.935608 
z"/>
<path fill="#F3F3F3" opacity="1.000000" stroke="none" 
	d="
M783.685913,326.312408 
	C803.692444,355.111816 786.590393,394.001007 752.061279,398.925110 
	C732.882690,401.660095 715.516296,398.188568 701.912781,383.259125 
	C679.467346,358.625916 690.447693,318.785339 722.450562,309.629791 
	C745.821960,302.943573 766.996643,306.179443 783.685913,326.312408 
M775.819580,344.025055 
	C773.120789,339.328400 771.178589,333.924713 767.577698,330.070984 
	C757.753479,319.557312 744.881409,318.066681 731.561035,320.644104 
	C710.582397,324.703369 699.307739,347.264343 708.107361,366.734802 
	C715.403442,382.878540 735.715271,391.197021 753.873108,385.477722 
	C770.699524,380.177734 779.462952,364.057098 775.819580,344.025055 
z"/>
<path fill="#F3F3F2" opacity="1.000000" stroke="none" 
	d="
M622.340210,390.342468 
	C608.094727,402.618958 578.750366,402.840698 564.685730,391.033264 
	C558.086975,385.493591 554.855469,378.412811 555.391724,370.383179 
	C559.966553,370.383179 564.560852,370.383179 569.126831,370.383179 
	C574.504272,386.242706 594.451843,392.881073 608.769104,383.653748 
	C612.832031,381.035187 615.256165,377.451263 614.967529,372.458557 
	C614.680054,367.485931 611.564514,364.431213 607.217896,363.043274 
	C600.267456,360.823853 593.067200,359.388916 586.110657,357.186127 
	C579.960632,355.238708 573.586670,353.421143 568.039490,350.266327 
	C556.138916,343.498291 554.088928,327.870483 563.141968,317.569763 
	C567.812317,312.255676 573.650452,308.837891 580.565979,307.556915 
	C594.254700,305.021332 607.479736,305.407349 618.866577,314.922485 
	C624.576965,319.694153 627.198792,325.941681 627.364746,333.647339 
	C622.654541,333.647339 618.078491,333.647339 613.511658,333.647339 
	C611.374573,324.330811 606.401367,319.549805 596.635559,319.065948 
	C591.303711,318.801758 585.710022,319.657654 580.558044,321.136200 
	C575.718628,322.525055 573.306885,326.837646 573.067322,331.930450 
	C572.835083,336.868164 576.052002,339.789124 580.118225,341.184814 
	C586.691467,343.440979 593.507507,344.987244 600.214478,346.857025 
	C604.852844,348.150116 609.685120,349.003632 614.076233,350.882324 
	C631.934326,358.522919 635.541016,375.603058 622.340210,390.342468 
z"/>
<path fill="#F5F5F4" opacity="1.000000" stroke="none" 
	d="
M889.477051,331.558777 
	C890.774475,337.925995 892.700012,343.921112 892.885925,349.969757 
	C893.356750,365.282410 893.048096,380.619080 893.037598,395.946136 
	C893.037415,396.265320 892.867859,396.584412 892.679199,397.249451 
	C887.894165,397.249451 883.008362,397.249451 877.682129,397.249451 
	C877.682129,386.537262 877.754028,375.914734 877.656982,365.293762 
	C877.591553,358.138397 877.893005,350.905548 876.963745,343.847778 
	C875.048950,329.303802 864.029297,319.873016 849.670410,319.622986 
	C834.595337,319.360474 822.788696,328.313751 820.044617,342.596222 
	C819.142944,347.289307 819.174438,352.199127 819.133545,357.012878 
	C819.020569,370.326019 819.094421,383.640747 819.094421,397.293457 
	C813.938293,397.293457 809.050049,397.293457 804.224182,397.293457 
	C804.224182,379.047211 802.700806,360.775482 804.580322,342.860779 
	C807.416748,315.825928 835.814331,300.112946 863.604065,308.595490 
	C875.551941,312.242462 884.447266,319.462341 889.477051,331.558777 
z"/>
<path fill="#F5F5F4" opacity="1.000000" stroke="none" 
	d="
M646.044373,307.632019 
	C647.039124,306.253967 647.925232,304.899872 647.958618,303.525085 
	C648.111572,297.224060 648.025879,290.917267 648.025879,284.284760 
	C653.103760,284.284760 658.017029,284.284760 663.368835,284.284760 
	C663.368835,291.755066 663.368835,299.327393 663.368835,307.454773 
	C670.805725,307.454773 677.843750,307.454773 685.138977,307.454773 
	C685.138977,311.584381 685.138977,315.150970 685.138977,319.094574 
	C677.866455,319.094574 670.777954,319.094574 663.663330,319.094574 
	C663.663330,336.241486 663.173706,353.033203 663.838562,369.779053 
	C664.268799,380.613464 670.375366,385.196899 681.380005,385.069916 
	C682.532043,385.056641 683.684387,385.068146 685.095459,385.068146 
	C685.095459,389.140503 685.095459,393.052277 685.095459,396.893280 
	C664.434143,402.183380 648.194702,389.738892 647.886658,368.400787 
	C647.675232,353.752106 647.874451,339.097443 647.889648,324.445465 
	C647.891296,322.826050 647.889893,321.206604 647.889893,319.222107 
	C642.507690,319.222107 637.575439,319.222107 632.268616,319.222107 
	C632.268616,315.299316 632.268616,311.736969 632.268616,307.646484 
	C636.651672,307.646484 641.097351,307.646484 646.044373,307.632019 
z"/>
<path fill="#F2F2F1" opacity="1.000000" stroke="none" 
	d="
M544.872864,310.412750 
	C547.146973,310.410522 548.961060,310.410522 551.357056,310.410522 
	C551.345581,325.949890 544.786987,338.123932 532.424316,346.386475 
	C513.057617,359.330109 492.225555,360.033447 471.823120,349.112030 
	C457.065491,341.212311 450.026245,327.822083 449.536682,310.653534 
	C455.012665,310.653534 460.074493,310.653534 465.556213,310.653534 
	C465.794159,321.167023 469.848175,329.996063 478.282715,336.430389 
	C485.322815,341.800995 493.495361,343.748108 502.270325,343.294495 
	C521.800354,342.284912 533.173462,331.278961 535.692505,310.414978 
	C538.536987,310.414978 541.474915,310.414978 544.872864,310.412750 
z"/>
<path fill="#E8E8E8" opacity="1.000000" stroke="none" 
	d="
M696.859863,444.094543 
	C695.351379,440.102661 693.968384,436.457703 692.121338,431.589600 
	C690.465149,436.080109 689.419739,439.522217 687.892212,442.735138 
	C687.338318,443.900177 685.690308,445.060089 684.431030,445.195648 
	C683.574402,445.287872 682.067566,443.773010 681.639771,442.670837 
	C679.435364,436.991699 677.485596,431.213684 675.090027,424.464478 
	C684.065369,425.789124 680.608521,434.647644 685.611450,438.229065 
	C686.797241,434.693359 687.748840,431.256561 689.141113,428.008728 
	C689.674683,426.764099 691.215576,425.164276 692.296326,425.165100 
	C693.352905,425.165924 694.861084,426.813263 695.377380,428.065125 
	C696.821289,431.566193 697.854797,435.236481 699.088623,438.955414 
	C703.563599,435.015839 700.905579,426.665466 709.496826,424.104584 
	C706.751160,431.492737 704.640076,437.690887 702.009277,443.659943 
	C701.640686,444.496094 698.723083,444.208771 696.859863,444.094543 
z"/>
<path fill="#E8E8E8" opacity="1.000000" stroke="none" 
	d="
M596.998169,441.321686 
	C598.403992,440.754456 599.704407,440.229584 600.973267,440.297028 
	C604.218811,440.469421 607.450378,441.103821 610.687378,441.102570 
	C611.541138,441.102234 612.999146,439.514923 613.078247,438.564636 
	C613.158142,437.604462 612.092957,436.015259 611.140686,435.605713 
	C608.563904,434.497650 605.413452,434.412598 603.179932,432.902344 
	C600.830017,431.313385 598.239990,428.790161 597.631775,426.229340 
	C596.803162,422.740936 599.413391,420.010406 602.930420,418.800568 
	C607.767944,417.136536 612.389648,417.758606 617.373230,421.762268 
	C615.959351,422.240784 614.557434,423.072418 613.128967,423.120758 
	C610.537354,423.208496 607.895020,422.516663 605.346497,422.801025 
	C604.336121,422.913788 603.012146,424.668152 602.793091,425.852997 
	C602.647156,426.642273 604.016174,428.202209 605.033813,428.618256 
	C607.478210,429.617828 610.143616,430.059692 612.667297,430.886841 
	C616.114929,432.016754 618.484619,434.102448 618.314026,438.107574 
	C618.149963,441.960815 615.890503,444.121979 612.450928,445.314850 
	C606.851807,447.256683 599.672729,445.558502 596.998169,441.321686 
z"/>
<path fill="#E8E8E8" opacity="1.000000" stroke="none" 
	d="
M786.928711,419.848358 
	C791.582397,419.437592 795.982666,418.684662 800.234192,419.188110 
	C803.523926,419.577667 803.441162,420.276825 801.674744,423.582886 
	C798.679688,423.158661 795.756775,422.360809 792.879578,422.501373 
	C791.469666,422.570221 790.144836,424.382019 788.781494,425.405029 
	C789.943665,426.596436 790.908752,428.181000 792.314819,428.885834 
	C794.360596,429.911377 796.750610,430.226196 798.946045,430.982697 
	C802.432556,432.184082 804.577576,434.513641 804.403137,438.391022 
	C804.228455,442.274292 801.830688,444.911316 798.293884,445.187744 
	C794.137390,445.512573 789.822388,444.954620 785.695862,444.158875 
	C782.359558,443.515472 782.591492,441.356201 784.109619,439.844269 
	C788.381287,440.505890 792.056641,441.345306 795.758850,441.488739 
	C796.912781,441.533447 798.916077,439.821655 799.100525,438.682404 
	C799.263611,437.675079 797.670532,435.886505 796.437927,435.262360 
	C794.400391,434.230652 792.005859,433.927826 789.802490,433.195160 
	C782.582397,430.794220 781.338989,425.609070 786.928711,419.848358 
z"/>
<path fill="#E8E8E8" opacity="1.000000" stroke="none" 
	d="
M928.066895,430.315552 
	C926.952637,435.273590 926.150940,439.921448 925.248901,445.151367 
	C924.511658,445.196075 923.161865,445.277985 921.531982,445.376831 
	C921.531982,438.512329 921.531982,432.085052 921.531982,425.498962 
	C926.050354,425.212036 930.492310,424.526764 934.881165,424.776031 
	C938.539490,424.983826 940.986389,427.533691 941.166992,431.381378 
	C941.375610,435.827515 941.215576,440.290924 941.215576,445.034760 
	C939.907593,445.168243 938.653931,445.296173 937.350769,445.429169 
	C937.109314,444.755249 936.824707,444.317047 936.813538,443.871948 
	C936.738464,440.877563 936.839172,437.874664 936.660278,434.887848 
	C936.318359,429.179230 934.053284,427.888031 928.066895,430.315552 
z"/>
<path fill="#E4E4E3" opacity="1.000000" stroke="none" 
	d="
M729.009033,432.464142 
	C729.029419,436.873627 729.029419,440.841156 729.029419,444.790985 
	C724.821777,445.147888 720.877625,445.853851 716.966248,445.703949 
	C713.450500,445.569183 710.323914,443.803802 710.267883,439.711090 
	C710.213013,435.705688 712.918030,433.808350 716.673218,433.495789 
	C718.952698,433.306091 721.260864,433.460785 723.582703,433.460785 
	C723.041260,428.106537 721.217285,427.557495 712.187134,430.212311 
	C712.459656,428.515594 712.196289,426.637756 712.946411,426.047150 
	C718.398621,421.754425 727.356323,425.185883 729.009033,432.464142 
M723.154175,436.825409 
	C722.012451,436.771210 720.825867,436.495850 719.739929,436.716278 
	C718.234131,437.022034 716.704834,437.541199 715.419006,438.343231 
	C715.136963,438.519135 715.588135,440.969238 716.131226,441.162109 
	C717.722717,441.727173 719.881287,442.354919 721.156921,441.690155 
	C722.472107,441.004822 723.010254,438.828522 723.154175,436.825409 
z"/>
<path fill="#E8E8E8" opacity="1.000000" stroke="none" 
	d="
M756.337036,436.882019 
	C755.424316,437.641571 754.415344,438.861359 754.599792,439.081665 
	C757.022034,441.973785 760.043274,442.365021 763.566772,441.168060 
	C764.757507,440.763519 766.251709,441.252289 768.773376,441.402069 
	C763.112427,446.754944 757.017456,447.134277 752.287292,443.532776 
	C748.664185,440.774323 747.398132,434.859955 749.479065,430.415009 
	C751.623169,425.835266 756.941956,423.479614 762.054749,424.845337 
	C766.951599,426.153320 769.476135,430.293304 769.016541,436.877625 
	C764.981995,436.877625 760.888794,436.877625 756.337036,436.882019 
M764.186279,431.285187 
	C761.910706,430.429382 759.632141,428.946014 757.360596,428.956573 
	C756.029602,428.962799 754.709717,431.349945 752.532104,433.513123 
	C756.246460,433.513123 758.253662,433.708771 760.200073,433.449158 
	C761.671997,433.252838 763.066406,432.475037 764.186279,431.285187 
z"/>
<path fill="#E7E6E6" opacity="1.000000" stroke="none" 
	d="
M847.501099,424.867920 
	C848.283264,428.200806 848.864380,431.481842 849.039124,434.784393 
	C849.217041,438.147980 849.365540,441.478241 853.796082,441.464630 
	C858.169373,441.451202 859.227051,438.421814 859.150940,434.647156 
	C859.090759,431.658325 859.138855,428.667267 859.138855,425.239075 
	C860.604187,425.063019 861.989502,424.896545 863.751709,424.684784 
	C863.751709,431.641937 863.751709,438.205078 863.751709,444.965179 
	C859.374878,445.196442 854.884094,446.052795 850.622314,445.404175 
	C848.410522,445.067535 845.368835,442.355896 844.871521,440.213531 
	C843.839966,435.770081 844.158936,430.989288 844.214355,426.350647 
	C844.220520,425.830780 846.107117,425.333344 847.501099,424.867920 
z"/>
<path fill="#E8E8E8" opacity="1.000000" stroke="none" 
	d="
M626.156311,444.039154 
	C620.885132,439.038391 619.983398,433.438080 623.393677,428.696930 
	C626.271362,424.696167 632.638733,423.288910 637.410889,425.599030 
	C642.040894,427.840332 644.401611,433.109833 643.063599,438.216797 
	C641.250427,445.137268 634.264709,447.673340 626.156311,444.039154 
M636.220886,429.974487 
	C632.944336,427.872864 629.856628,428.068054 627.558594,431.293121 
	C625.517822,434.157043 625.458435,437.731018 628.241150,439.756744 
	C630.072205,441.089661 633.729492,441.625854 635.697571,440.688690 
	C639.368713,438.940521 639.390320,435.234467 637.685547,431.694305 
	C637.474548,431.256134 637.112488,430.890686 636.220886,429.974487 
z"/>
<path fill="#E8E8E8" opacity="1.000000" stroke="none" 
	d="
M828.003784,430.069214 
	C830.174866,436.495758 829.211365,440.634583 825.042480,443.788269 
	C821.171265,446.716736 815.567505,446.694824 811.567627,443.735657 
	C807.867859,440.998474 805.871338,435.919342 808.154785,431.799469 
	C809.750610,428.920105 812.814636,426.037964 815.859436,424.967102 
	C820.583740,423.305603 824.992065,425.255249 828.003784,430.069214 
M823.300842,431.477631 
	C820.905457,428.205200 817.310547,427.403961 814.802979,430.055603 
	C813.098816,431.857758 812.465881,435.926453 813.245422,438.380829 
	C813.760742,440.003571 817.776367,441.653564 819.963196,441.357666 
	C823.911926,440.823425 824.766602,437.336426 824.108154,433.641266 
	C824.021484,433.154877 823.839844,432.685455 823.300842,431.477631 
z"/>
<path fill="#E8E8E8" opacity="1.000000" stroke="none" 
	d="
M906.003052,445.969910 
	C897.809692,444.764923 893.867676,439.951721 895.061646,433.115723 
	C896.065063,427.370728 901.481873,423.826355 907.831177,424.760162 
	C913.150269,425.542450 916.828613,429.667572 916.952820,434.989960 
	C917.092590,440.973877 913.360352,444.860168 906.003052,445.969910 
M900.112366,432.990997 
	C900.990173,435.643127 901.289551,438.795044 902.976624,440.748016 
	C903.895142,441.811188 907.827637,441.666229 909.209229,440.567688 
	C910.804932,439.298950 911.898682,436.303802 911.699219,434.201599 
	C911.523682,432.351807 909.614380,429.956726 907.847900,429.124847 
	C904.774780,427.677643 902.047791,429.165283 900.112366,432.990997 
z"/>
<path fill="#E7E6E6" opacity="1.000000" stroke="none" 
	d="
M946.296509,444.012085 
	C945.183960,440.842712 946.023865,439.797394 949.179565,440.868103 
	C952.212158,441.897125 955.419067,443.198914 958.939331,439.137909 
	C956.041565,438.285065 953.811768,437.597260 951.563965,436.974762 
	C948.315735,436.075226 945.520203,434.759369 945.808533,430.681946 
	C946.079224,426.853546 948.620239,424.932953 952.033630,424.745270 
	C955.351868,424.562805 958.717712,425.245087 962.733215,425.608276 
	C959.948303,433.110748 953.261108,424.699463 950.726196,430.956879 
	C951.659058,431.532837 952.784668,432.458466 954.074585,432.968933 
	C955.913208,433.696533 958.210510,433.674744 959.686035,434.796417 
	C961.197876,435.945709 962.831726,438.104645 962.797852,439.789185 
	C962.763794,441.486664 960.876099,444.449036 959.572083,444.579865 
	C955.310730,445.007385 950.945251,444.396759 946.296509,444.012085 
z"/>
<path fill="#E7E6E6" opacity="1.000000" stroke="none" 
	d="
M657.999512,425.388367 
	C660.568848,425.432983 663.354492,425.954407 663.384155,421.870605 
	C663.388428,421.288696 665.545776,420.097443 665.694397,420.240387 
	C666.891968,421.392487 667.847046,422.796722 668.788574,424.010986 
	C670.259888,424.940948 671.821960,425.928314 673.384033,426.915680 
	C671.959045,427.850006 670.533997,428.784332 668.067383,430.401642 
	C668.067383,432.009705 668.120605,434.921661 668.051392,437.830780 
	C667.990540,440.386566 668.701294,441.932953 671.697266,441.895172 
	C672.518799,441.884827 673.357361,443.226013 674.188110,443.947021 
	C673.346497,444.554565 672.581421,445.501099 671.650085,445.711487 
	C667.426025,446.665802 663.726440,443.917145 663.226562,439.532379 
	C663.039551,437.891602 663.112061,436.219788 663.092957,434.561768 
	C663.074036,432.918365 663.088806,431.274536 663.088806,429.434570 
	C661.568115,428.981110 660.218689,428.578674 658.430359,428.053345 
	C657.994141,427.083099 657.996826,426.235718 657.999512,425.388367 
z"/>
<path fill="#E0E0DF" opacity="1.000000" stroke="none" 
	d="
M876.059570,429.455536 
	C875.749268,432.150787 875.733032,434.475342 875.656006,436.797943 
	C875.560791,439.667603 875.618347,442.281555 879.737671,441.869934 
	C880.393799,441.804382 881.160767,442.848236 881.876465,443.379242 
	C881.170593,444.115540 880.593018,445.239899 879.737183,445.522827 
	C875.376709,446.964417 871.289856,444.198547 870.864990,439.603668 
	C870.697327,437.790802 870.777588,435.954224 870.763367,434.128296 
	C870.756958,433.298553 871.078613,432.333801 870.760193,431.663757 
	C869.800232,429.643768 867.694702,427.699371 867.776550,425.800568 
	C867.842834,424.262756 870.427246,422.833527 872.879517,420.364838 
	C875.212158,420.133606 875.212158,420.133606 876.108521,424.905945 
	C877.501953,424.905945 878.943665,424.905945 880.376404,424.905945 
	C882.472168,430.013031 878.300903,428.414764 876.059570,429.455536 
z"/>
<path fill="#E8E8E8" opacity="1.000000" stroke="none" 
	d="
M657.641785,425.186279 
	C657.996826,426.235718 657.994141,427.083099 657.995972,428.248169 
	C656.579712,428.788971 655.158936,429.012054 653.522461,429.269012 
	C653.522461,434.509155 653.522461,439.608002 653.522461,445.202515 
	C651.957764,445.302979 650.609192,445.389557 648.833130,445.503601 
	C648.833130,441.566101 648.927551,438.111847 648.800293,434.665741 
	C648.713806,432.325226 650.123413,429.282227 646.263000,428.340942 
	C645.952393,428.265228 645.536316,426.958862 645.763123,426.603607 
	C647.704102,423.563812 649.520325,420.368622 651.947937,417.752625 
	C652.921082,416.703979 655.331543,416.749725 657.083252,416.766785 
	C657.926147,416.774963 658.758484,417.872253 659.595642,418.476349 
	C658.761963,419.230164 657.996948,420.084229 657.078369,420.714203 
	C655.714172,421.649780 654.241211,422.426758 652.814575,423.271240 
	C653.030823,423.758331 653.247131,424.245392 653.463379,424.732452 
	C654.736938,424.816345 656.010498,424.900269 657.641785,425.186279 
z"/>
<path fill="#F4F4F3" opacity="1.000000" stroke="none" 
	d="
M833.748413,434.927917 
	C833.749634,428.817474 833.749634,423.193787 833.749634,417.292847 
	C835.289978,417.292847 836.678772,417.292847 838.290771,417.292847 
	C838.290771,426.557281 838.290771,435.638458 838.290771,445.198914 
	C837.032898,445.330994 835.675476,445.473541 833.747192,445.676025 
	C833.747192,441.956635 833.747192,438.685638 833.748413,434.927917 
z"/>
<path fill="#E4E4E3" opacity="1.000000" stroke="none" 
	d="
M734.799377,443.183777 
	C734.786255,436.976837 734.786255,431.187408 734.786255,425.507385 
	C738.645752,425.507385 742.221252,425.507385 746.568604,425.507385 
	C746.283081,426.390411 746.032410,428.695923 745.430725,428.791504 
	C738.987244,429.814972 739.611267,434.609680 739.583374,439.109009 
	C739.572021,440.934814 739.581543,442.760742 739.581543,446.031891 
	C737.668701,445.056976 736.240601,444.329132 734.799377,443.183777 
z"/>
<path fill="#E0E0DF" opacity="1.000000" stroke="none" 
	d="
M885.744995,440.613281 
	C885.746216,435.214600 885.746216,430.267426 885.746216,425.088348 
	C887.540588,425.088348 888.933289,425.088348 890.437317,425.088348 
	C890.437317,431.889557 890.437317,438.430237 890.437317,444.962006 
	C885.772705,446.940613 885.569031,444.216003 885.744995,440.613281 
z"/>
<path fill="#E0E0DF" opacity="1.000000" stroke="none" 
	d="
M886.595581,416.434753 
	C888.311768,416.900391 889.861633,417.392212 891.025391,418.352142 
	C891.342346,418.613556 890.696899,421.008057 890.143921,421.160980 
	C888.912659,421.501556 886.766785,421.519287 886.271484,420.794861 
	C885.627136,419.852417 886.222290,418.062408 886.595581,416.434753 
z"/>
<path fill="#131313" opacity="1.000000" stroke="none" 
	d="
M423.413330,327.597839 
	C426.485229,332.402252 429.307800,336.948517 432.803528,342.579102 
	C408.437805,342.579102 385.933411,342.579102 363.021820,342.579102 
	C365.615112,331.297852 372.339142,323.440582 382.944794,320.062927 
	C397.328857,315.481873 411.267853,316.592285 423.413330,327.597839 
z"/>
<path fill="#141414" opacity="1.000000" stroke="none" 
	d="
M933.028809,343.723450 
	C928.885742,343.727570 925.236450,343.727570 921.581604,343.727570 
	C922.198975,330.862854 936.819824,319.349243 953.088684,318.780243 
	C972.287354,318.108704 987.377014,328.290680 989.184387,343.719360 
	C970.585571,343.719360 952.054077,343.719360 933.028809,343.723450 
z"/>
<path fill="#0F0F0F" opacity="1.000000" stroke="none" 
	d="
M775.890381,344.435364 
	C779.462952,364.057098 770.699524,380.177734 753.873108,385.477722 
	C735.715271,391.197021 715.403442,382.878540 708.107361,366.734802 
	C699.307739,347.264343 710.582397,324.703369 731.561035,320.644104 
	C744.881409,318.066681 757.753479,319.557312 767.577698,330.070984 
	C771.178589,333.924713 773.120789,339.328400 775.890381,344.435364 
z"/>
<path fill="#131313" opacity="1.000000" stroke="none" 
	d="
M723.521301,437.065002 
	C723.010254,438.828522 722.472107,441.004822 721.156921,441.690155 
	C719.881287,442.354919 717.722717,441.727173 716.131226,441.162109 
	C715.588135,440.969238 715.136963,438.519135 715.419006,438.343231 
	C716.704834,437.541199 718.234131,437.022034 719.739929,436.716278 
	C720.825867,436.495850 722.012451,436.771210 723.521301,437.065002 
z"/>
<path fill="#191919" opacity="1.000000" stroke="none" 
	d="
M764.340820,431.620605 
	C763.066406,432.475037 761.671997,433.252838 760.200073,433.449158 
	C758.253662,433.708771 756.246460,433.513123 752.532104,433.513123 
	C754.709717,431.349945 756.029602,428.962799 757.360596,428.956573 
	C759.632141,428.946014 761.910706,430.429382 764.340820,431.620605 
z"/>
<path fill="#191919" opacity="1.000000" stroke="none" 
	d="
M636.520630,430.233032 
	C637.112488,430.890686 637.474548,431.256134 637.685547,431.694305 
	C639.390320,435.234467 639.368713,438.940521 635.697571,440.688690 
	C633.729492,441.625854 630.072205,441.089661 628.241150,439.756744 
	C625.458435,437.731018 625.517822,434.157043 627.558594,431.293121 
	C629.856628,428.068054 632.944336,427.872864 636.520630,430.233032 
z"/>
<path fill="#191919" opacity="1.000000" stroke="none" 
	d="
M823.501526,431.842896 
	C823.839844,432.685455 824.021484,433.154877 824.108154,433.641266 
	C824.766602,437.336426 823.911926,440.823425 819.963196,441.357666 
	C817.776367,441.653564 813.760742,440.003571 813.245422,438.380829 
	C812.465881,435.926453 813.098816,431.857758 814.802979,430.055603 
	C817.310547,427.403961 820.905457,428.205200 823.501526,431.842896 
z"/>
<path fill="#141414" opacity="1.000000" stroke="none" 
	d="
M900.245361,432.602051 
	C902.047791,429.165283 904.774780,427.677643 907.847900,429.124847 
	C909.614380,429.956726 911.523682,432.351807 911.699219,434.201599 
	C911.898682,436.303802 910.804932,439.298950 909.209229,440.567688 
	C907.827637,441.666229 903.895142,441.811188 902.976624,440.748016 
	C901.289551,438.795044 900.990173,435.643127 900.245361,432.602051 
z"/>
</svg>